<?xml version="1.0" encoding="UTF-8"?>
<svg width="204px" height="64px" viewBox="0 0 204 64" version="1.1" xmlns="http://www.w3.org/2000/svg" xmlns:xlink="http://www.w3.org/1999/xlink">
    <title>42B9B062-6E97-4985-8E55-B8CC5C952DFA</title>
    <defs>
        <filter x="-3.9%" y="-21.4%" width="107.7%" height="142.9%" filterUnits="objectBoundingBox" id="filter-1">
            <feOffset dx="0" dy="2" in="SourceAlpha" result="shadowOffsetOuter1"></feOffset>
            <feGaussianBlur stdDeviation="2" in="shadowOffsetOuter1" result="shadowBlurOuter1"></feGaussianBlur>
            <feColorMatrix values="0 0 0 0 0   0 0 0 0 0   0 0 0 0 0  0 0 0 0.5 0" type="matrix" in="shadowBlurOuter1" result="shadowMatrixOuter1"></feColorMatrix>
            <feMerge>
                <feMergeNode in="shadowMatrixOuter1"></feMergeNode>
                <feMergeNode in="SourceGraphic"></feMergeNode>
            </feMerge>
        </filter>
    </defs>
    <g id="Page-1" stroke="none" stroke-width="1" fill="none" fill-rule="evenodd">
        <g id="Account-AcctInfo" transform="translate(-688.000000, -1523.000000)" fill="#CACCCE">
            <g id="Group-9" transform="translate(0.000000, 1316.000000)">
                <g id="20C-Logo" filter="url(#filter-1)" transform="translate(577.000000, 209.000000)">
                    <g id="Group-5">
                        <path d="M307.611839,20.7996722 L310.815191,20.7996722 L308.022525,31.5694629 L308.022525,37.4887372 L304.654898,37.4887372 L304.654898,31.7338872 L301.862232,20.7174601 L305.311996,20.7174601 L306.461917,26.3900979 L307.611839,20.7996722 Z M297.591095,23.6770972 L296.769722,23.6770972 L296.769722,28.2809772 L297.591095,28.2809772 C298.001781,28.2809772 298.166056,28.1165529 298.166056,27.7054922 L298.166056,24.2525822 C298.166056,23.8415215 298.001781,23.6770972 297.591095,23.6770972 L297.591095,23.6770972 Z M301.533683,31.7338872 L301.533683,37.4887372 L298.166056,37.4887372 L298.166056,31.7338872 C298.166056,31.3228265 298.001781,31.1584022 297.591095,31.1584022 L296.769722,31.1584022 L296.769722,37.4887372 L293.402095,37.4887372 L293.402095,20.7174601 L298.412467,20.7174601 C300.465898,20.7174601 301.533683,21.7862179 301.533683,23.8415215 L301.533683,27.0477951 C301.533683,28.4454015 301.040859,29.1853108 300.137349,29.5141594 C301.122996,29.8430079 301.533683,30.5007051 301.533683,31.7338872 L301.533683,31.7338872 Z M292.252174,34.5291001 C292.252174,36.5844037 291.18439,37.6531615 289.130959,37.6531615 L287.077528,37.6531615 C285.024096,37.6531615 283.956312,36.5844037 283.956312,34.5291001 L283.956312,20.7174601 L287.323939,20.7174601 L287.323939,34.1180394 C287.323939,34.5291001 287.488214,34.6935244 287.8989,34.6935244 L288.227449,34.6935244 C288.638135,34.6935244 288.80241,34.5291001 288.80241,34.1180394 L288.80241,20.7174601 L292.170037,20.7174601 L292.170037,34.5291001 L292.252174,34.5291001 Z M277.796019,37.4887372 L277.796019,23.7593093 L275.742588,23.7593093 L275.742588,20.7996722 L283.13494,20.7996722 L283.13494,23.7593093 L281.081509,23.7593093 L281.081509,37.4887372 L277.796019,37.4887372 Z M272.046412,20.7996722 L274.921215,20.7996722 L274.921215,37.5709494 L271.635726,37.5709494 L269.500157,28.4454015 L269.582294,37.5709494 L266.707491,37.5709494 L266.707491,20.7996722 L270.157255,20.7996722 L272.128549,29.1030986 L272.046412,20.7996722 Z M265.639707,20.7996722 L265.639707,23.7593093 L262.764903,23.7593093 L262.764903,27.5410679 L265.475432,27.5410679 L265.475432,30.5007051 L262.764903,30.5007051 L262.764903,34.5291001 L265.639707,34.5291001 L265.639707,37.4887372 L259.397276,37.4887372 L259.397276,20.7174601 L265.639707,20.7174601 L265.639707,20.7996722 Z M258.329492,30.0896444 L258.329492,34.5291001 C258.329492,36.5844037 257.261708,37.6531615 255.208277,37.6531615 L253.154845,37.6531615 C251.101414,37.6531615 250.03363,36.5844037 250.03363,34.5291001 L250.03363,23.6770972 C250.03363,21.6217936 251.101414,20.5530358 253.154845,20.5530358 L255.126139,20.5530358 C257.17957,20.5530358 258.247355,21.6217936 258.247355,23.6770972 L258.247355,27.6232801 L254.961865,27.6232801 L254.961865,24.0881579 C254.961865,23.6770972 254.79759,23.5126729 254.386904,23.5126729 L253.976218,23.5126729 C253.565532,23.5126729 253.401257,23.6770972 253.401257,24.0881579 L253.401257,34.2002515 C253.401257,34.6113122 253.565532,34.7757365 253.976218,34.7757365 L254.386904,34.7757365 C254.79759,34.7757365 254.961865,34.6113122 254.961865,34.2002515 L254.961865,30.1718565 L258.329492,30.1718565 L258.329492,30.0896444 Z M242.88769,27.7877044 L242.88769,20.7174601 L245.433944,20.7174601 L245.433944,37.4887372 L242.88769,37.4887372 L242.88769,30.0896444 L240.423573,30.0896444 L240.423573,37.4887372 L237.877318,37.4887372 L237.877318,20.7174601 L240.423573,20.7174601 L240.423573,27.7877044 L242.88769,27.7877044 Z M232.045574,37.4887372 L232.045574,23.1016122 L229.745731,23.1016122 L229.745731,20.7996722 L236.891671,20.7996722 L236.891671,23.1016122 L234.591828,23.1016122 L234.591828,37.4887372 L232.045574,37.4887372 Z M228.924358,20.7996722 L228.924358,23.1016122 L225.803143,23.1016122 L225.803143,27.8699165 L228.842221,27.8699165 L228.842221,30.1718565 L225.803143,30.1718565 L225.803143,35.1867972 L229.006496,35.1867972 L229.006496,37.4887372 L223.256888,37.4887372 L223.256888,20.7174601 L228.924358,20.7996722 Z M219.149205,37.4887372 L221.696281,37.4887372 L221.696281,20.7174601 L219.149205,20.7174601 L219.149205,37.4887372 Z M213.236145,37.4887372 L213.236145,23.1016122 L210.936302,23.1016122 L210.936302,20.7996722 L218.082242,20.7996722 L218.082242,23.1016122 L215.782399,23.1016122 L215.782399,37.4887372 L213.236145,37.4887372 Z M207.650812,20.7996722 L209.950655,20.7996722 L209.950655,37.5709494 L207.157988,37.5709494 L204.529597,26.3078858 L204.529597,37.5709494 L202.229754,37.5709494 L202.229754,20.7996722 L205.186695,20.7996722 L207.568675,31.2406144 L207.650812,20.7996722 Z M200.915558,20.7996722 L200.915558,23.1016122 L197.794343,23.1016122 L197.794343,27.8699165 L200.833421,27.8699165 L200.833421,30.1718565 L197.794343,30.1718565 L197.794343,35.1867972 L200.997695,35.1867972 L200.997695,37.4887372 L195.248088,37.4887372 L195.248088,20.7174601 L200.915558,20.7996722 Z M181.695443,20.7996722 L184.241697,20.7996722 L185.473756,32.6382208 L186.787952,20.7996722 L189.252069,20.7996722 L190.566265,32.5560087 L191.798324,20.7996722 L194.180304,20.7996722 L192.126873,37.5709494 L189.087795,37.5709494 L187.937873,27.5410679 L186.787952,37.5709494 L183.748874,37.5709494 L181.695443,20.7996722 Z M176.274384,37.4887372 L176.274384,23.1016122 L173.974542,23.1016122 L173.974542,20.7996722 L181.120482,20.7996722 L181.120482,23.1016122 L178.820639,23.1016122 L178.820639,37.4887372 L176.274384,37.4887372 Z M153.686642,28.9386744 L157.547093,28.9386744 L157.547093,34.0358272 C157.547093,36.4199794 156.397171,37.6531615 153.933054,37.6531615 L151.551074,37.6531615 C149.169094,37.6531615 147.937035,36.4199794 147.937035,34.0358272 L147.937035,21.5395815 C147.937035,19.1554293 149.086957,17.9222472 151.551074,17.9222472 L153.850917,17.9222472 C156.232897,17.9222472 157.464955,19.0732172 157.464955,21.5395815 L157.464955,26.0612493 L153.604505,26.0612493 L153.604505,21.9506422 C153.604505,21.4573693 153.358093,21.2929451 152.947407,21.2929451 L152.536721,21.2929451 C152.043897,21.2929451 151.879623,21.5395815 151.879623,21.9506422 L151.879623,33.6247665 C151.879623,34.1180394 152.126035,34.2824637 152.536721,34.2824637 L153.029544,34.2824637 C153.522368,34.2824637 153.686642,34.0358272 153.686642,33.6247665 L153.686642,28.9386744 Z M143.501624,33.9536151 C143.501624,34.6935244 143.173075,35.1045851 142.43384,35.1045851 L141.858879,35.1045851 C141.119644,35.1045851 140.708958,34.7757365 140.708958,33.9536151 L140.708958,21.7040058 C140.708958,20.9640965 141.037507,20.5530358 141.858879,20.5530358 L142.43384,20.5530358 C143.173075,20.5530358 143.501624,20.8818843 143.501624,21.7040058 L143.501624,33.9536151 Z M142.844526,17.9222472 L141.366056,17.9222472 C138.984075,17.9222472 137.752017,19.0732172 137.752017,21.5395815 L137.752017,34.0358272 C137.752017,36.4199794 138.901938,37.6531615 141.366056,37.6531615 L142.844526,37.6531615 C145.226506,37.6531615 146.458565,36.4199794 146.458565,34.0358272 L146.458565,21.5395815 C146.458565,19.1554293 145.308643,17.9222472 142.844526,17.9222472 L142.844526,17.9222472 Z M136.273546,21.5395815 L136.273546,24.2525822 C136.273546,25.6501886 135.944997,26.6367344 134.795076,28.1165529 L131.673861,32.0627358 C131.0989,32.8026451 130.852488,33.2959179 130.852488,34.2002515 L130.852488,34.8579487 L136.273546,34.8579487 L136.273546,37.5709494 L127.895547,37.5709494 L127.895547,34.1180394 C127.895547,32.7204329 128.224096,31.7338872 129.456155,30.2540686 L132.57737,26.3078858 C133.152331,25.5679765 133.316606,25.1569158 133.316606,24.4170065 L133.316606,21.7040058 C133.316606,20.9640965 132.988057,20.5530358 132.248821,20.5530358 L131.920272,20.5530358 C131.181037,20.5530358 130.852488,20.8818843 130.852488,21.7040058 L130.852488,25.1569158 L128.059822,25.1569158 L128.059822,21.5395815 C128.059822,19.1554293 129.209743,17.9222472 131.591723,17.9222472 L132.741645,17.9222472 C135.123625,17.9222472 136.273546,19.1554293 136.273546,21.5395815 L136.273546,21.5395815 Z M142.762389,51.711438 C129.538292,51.711438 118.696176,40.9416472 118.696176,27.6232801 C118.696176,14.387125 129.456155,3.61733429 142.762389,3.61733429 C155.986485,3.61733429 166.746464,14.387125 166.746464,27.6232801 C166.746464,40.9416472 155.986485,51.711438 142.762389,51.711438 L142.762389,51.711438 Z M142.762389,0 C127.484861,0 115,12.4140336 115,27.7054922 C115,42.9969508 127.402724,55.4931966 142.762389,55.4931966 C158.039916,55.4931966 170.44264,43.079163 170.44264,27.7054922 C170.44264,12.4140336 158.039916,0 142.762389,0 L142.762389,0 Z" id="20c-logo-small"></path>
                    </g>
                </g>
            </g>
        </g>
    </g>
</svg>