<?xml version="1.0" encoding="UTF-8"?>
<svg width="16px" height="16px" viewBox="0 0 16 16" version="1.1" xmlns="http://www.w3.org/2000/svg" xmlns:xlink="http://www.w3.org/1999/xlink">
    <title>8FB993BA-BCCC-46A5-85D0-42FF72AA7214</title>
    <g id="Page-1" stroke="none" stroke-width="1" fill="none" fill-rule="evenodd">
        <g id="20C-AssetSheet" transform="translate(-140.000000, -170.000000)" fill="#4A4D50">
            <g id="icon/copy" transform="translate(140.000000, 170.000000)">
                <path d="M13,2 C14.1045695,2 15,2.8954305 15,4 L15,14 C15,15.1045695 14.1045695,16 13,16 L5,16 C3.8954305,16 3,15.1045695 3,14 L3,4 C3,2.8954305 3.8954305,2 5,2 L13,2 Z M13,3 L5,3 C4.48716416,3 4.06449284,3.38604019 4.00672773,3.88337887 L4,4 L4,14 C4,14.5128358 4.38604019,14.9355072 4.88337887,14.9932723 L5,15 L13,15 C13.5128358,15 13.9355072,14.6139598 13.9932723,14.1166211 L14,14 L14,4 C14,3.48716416 13.6139598,3.06449284 13.1166211,3.00672773 L13,3 Z M11,-3.10862447e-14 C11.7402524,-3.10862447e-14 12.3865739,0.40216612 12.7323937,0.999927519 L3,1 C2.48716416,1 2.06449284,1.38604019 2.00672773,1.88337887 L2,2 L1.99992752,13.7323937 C1.40216612,13.3865739 1,12.7402524 1,12 L1,2 C1,0.8954305 1.8954305,-3.10862447e-14 3,-3.10862447e-14 L11,-3.10862447e-14 Z" id="Combined-Shape"></path>
            </g>
        </g>
    </g>
</svg>