<?xml version="1.0" encoding="UTF-8"?>
<svg width="16px" height="16px" viewBox="0 0 16 16" version="1.1" xmlns="http://www.w3.org/2000/svg" xmlns:xlink="http://www.w3.org/1999/xlink">
    <title>8AD22E4F-D043-4F02-9ECB-599848E43D66</title>
    <g id="Page-1" stroke="none" stroke-width="1" fill="none" fill-rule="evenodd">
        <g id="20C-AssetSheet" transform="translate(-236.000000, -170.000000)" fill="#D0021B" fill-rule="nonzero">
            <g id="icon/delete-copy" transform="translate(236.000000, 170.000000)">
                <path d="M8,16 C9.10416667,16 10.1432292,15.7916667 11.1171875,15.375 C12.0911458,14.9583333 12.9401042,14.3880208 13.6640625,13.6640625 C14.3880208,12.9401042 14.9583333,12.0911458 15.375,11.1171875 C15.7916667,10.1432292 16,9.10416667 16,8 C16,6.89583333 15.7916667,5.85677083 15.375,4.8828125 C14.9583333,3.90885417 14.3880208,3.05989583 13.6640625,2.3359375 C12.9401042,1.61197917 12.0911458,1.04166667 11.1171875,0.625 C10.1432292,0.208333333 9.10416667,0 8,0 C6.89583333,0 5.85677083,0.208333333 4.8828125,0.625 C3.90885417,1.04166667 3.05989583,1.61197917 2.3359375,2.3359375 C1.61197917,3.05989583 1.04166667,3.90885417 0.625,4.8828125 C0.208333333,5.85677083 0,6.89583333 0,8 C0,9.10416667 0.208333333,10.1432292 0.625,11.1171875 C1.04166667,12.0911458 1.61197917,12.9401042 2.3359375,13.6640625 C3.05989583,14.3880208 3.90885417,14.9583333 4.8828125,15.375 C5.85677083,15.7916667 6.89583333,16 8,16 Z M13.296875,12.578125 L3.421875,2.703125 C3.734375,2.44270833 4.06510417,2.20572917 4.4140625,1.9921875 C4.76302083,1.77864583 5.13020833,1.59895833 5.515625,1.453125 C5.90104167,1.30729167 6.30208333,1.1953125 6.71875,1.1171875 C7.13541667,1.0390625 7.5625,1 8,1 C8.96875,1 9.87760417,1.18489583 10.7265625,1.5546875 C11.5755208,1.92447917 12.3151042,2.42447917 12.9453125,3.0546875 C13.5755208,3.68489583 14.0755208,4.42447917 14.4453125,5.2734375 C14.8151042,6.12239583 15,7.03125 15,8 C15,8.4375 14.9609375,8.86458333 14.8828125,9.28125 C14.8046875,9.69791667 14.6927083,10.0989583 14.546875,10.484375 C14.4010417,10.8697917 14.2213542,11.2369792 14.0078125,11.5859375 C13.7942708,11.9348958 13.5572917,12.265625 13.296875,12.578125 Z M8,15.015625 C7.03125,15.015625 6.12239583,14.8307292 5.2734375,14.4609375 C4.42447917,14.0911458 3.68489583,13.5885417 3.0546875,12.953125 C2.42447917,12.3177083 1.92447917,11.5755208 1.5546875,10.7265625 C1.18489583,9.87760417 1,8.96875 1,8 C1,7.5625 1.0390625,7.13541667 1.1171875,6.71875 C1.1953125,6.30208333 1.30989583,5.8984375 1.4609375,5.5078125 C1.61197917,5.1171875 1.79166667,4.74739583 2,4.3984375 C2.20833333,4.04947917 2.44791667,3.71875 2.71875,3.40625 L12.59375,13.28125 C12.28125,13.5520833 11.9505208,13.7942708 11.6015625,14.0078125 C11.2526042,14.2213542 10.8828125,14.4036458 10.4921875,14.5546875 C10.1015625,14.7057292 9.69791667,14.8203125 9.28125,14.8984375 C8.86458333,14.9765625 8.4375,15.015625 8,15.015625 Z" id="î¼"></path>
            </g>
        </g>
    </g>
</svg>